<svg width="15" height="20" viewBox="0 0 15 20" fill="none" xmlns="http://www.w3.org/2000/svg">
<path fill-rule="evenodd" clip-rule="evenodd" d="M8.29771 17.3375C8.46393 17.3375 8.61738 17.2375 8.69967 17.0755L12.0456 10.4877C12.4892 9.61449 12.6753 8.60634 12.5774 7.60733L12.2243 4.00271C12.1615 3.36137 11.7126 2.85337 11.1414 2.77715L9.02434 2.49468C7.62677 2.3082 6.20974 2.46984 4.87426 2.96808C4.21472 3.21413 3.68645 3.77562 3.43194 4.50109L1.72785 9.35848C1.68619 9.47724 1.6574 9.60118 1.64209 9.72764C1.51285 10.7956 2.34632 11.6964 3.29299 11.512L6.7088 10.8466C7.78779 10.6364 8.71971 11.7044 8.50912 12.9098L7.84372 16.7188C7.78772 17.0394 8.00651 17.3375 8.29771 17.3375ZM10.003 17.9083C9.65392 18.5956 9.00293 19.02 8.29772 19.02C7.06233 19.02 6.13416 17.7551 6.37171 16.3953L7.03711 12.5863C7.03997 12.57 7.03844 12.56 7.03643 12.5529C7.03396 12.5441 7.0289 12.5337 7.02054 12.5242C7.01218 12.5146 7.00308 12.5087 6.99528 12.5057C6.98894 12.5033 6.98009 12.5014 6.96548 12.5042L3.54967 13.1697C1.60349 13.5488 -0.109975 11.6968 0.155723 9.50133C0.187187 9.24135 0.24638 8.98655 0.332032 8.74241L2.03612 3.88502C2.4534 2.69559 3.31951 1.77501 4.40084 1.37159C5.94569 0.795253 7.58487 0.608272 9.20152 0.823979L11.3186 1.10645C12.5828 1.27513 13.5763 2.39949 13.7153 3.81894L14.0685 7.42356C14.2009 8.77515 13.9491 10.1391 13.349 11.3206L10.003 17.9083Z" fill="black"/>
</svg>
