<svg width="22" height="28" viewBox="0 0 22 28" fill="none" xmlns="http://www.w3.org/2000/svg">
<path fill-rule="evenodd" clip-rule="evenodd" d="M16.5592 3.25932C12.8856 2.64346 9.11431 2.64346 5.44072 3.25932C4.74939 3.37522 4.20031 3.90637 4.0625 4.59053C2.80864 10.8153 2.74022 17.2208 3.86084 23.471L4.09254 24.7632L9.29245 19.8233C10.2493 18.9143 11.7506 18.9143 12.7075 19.8233L17.9074 24.7632L18.1391 23.471C19.2597 17.2208 19.1913 10.8153 17.9375 4.59053C17.7996 3.90637 17.2506 3.37522 16.5592 3.25932ZM5.08938 1.16357C8.99557 0.508709 13.0044 0.508709 16.9106 1.16357C18.4678 1.42463 19.7082 2.62004 20.0206 4.17092C21.3272 10.6577 21.3985 17.3328 20.2308 23.846L19.917 25.596C19.6536 27.0649 17.8629 27.652 16.781 26.6242L11.2439 21.3639C11.1072 21.2341 10.8927 21.2341 10.756 21.3639L5.21896 26.6242C4.13705 27.652 2.34633 27.0649 2.08297 25.596L1.7692 23.846C0.601412 17.3328 0.672705 10.6577 1.97934 4.17092C2.29173 2.62004 3.53216 1.42463 5.08938 1.16357Z" fill="black"/>
</svg>
