<svg width="15" height="17" viewBox="0 0 15 17" fill="none" xmlns="http://www.w3.org/2000/svg">
<path fill-rule="evenodd" clip-rule="evenodd" d="M8.29758 15.0908C8.46381 15.0908 8.61726 15.0048 8.69954 14.8654L12.0455 9.19868C12.4891 8.44751 12.6752 7.58031 12.5773 6.72096L12.2242 3.62027C12.1613 3.06859 11.7125 2.6316 11.1413 2.56604L9.02422 2.32306C7.62665 2.16265 6.20962 2.3017 4.87414 2.73027C4.2146 2.94193 3.68633 3.42493 3.43182 4.04898L1.72773 8.2273C1.68607 8.32945 1.65727 8.43607 1.64197 8.54485C1.51273 9.46349 2.3462 10.2384 3.29287 10.0798L6.70868 9.50735C7.78767 9.32653 8.71959 10.2452 8.509 11.2822L7.84359 14.5587C7.7876 14.8344 8.00638 15.0908 8.29758 15.0908ZM10.0029 15.5818C9.6538 16.173 9.0028 16.5381 8.2976 16.5381C7.06221 16.5381 6.13403 15.4501 6.37159 14.2804L7.03699 11.0039C7.03984 10.9898 7.03831 10.9813 7.03631 10.9751C7.03384 10.9675 7.02878 10.9586 7.02042 10.9504C7.01206 10.9422 7.00296 10.9371 6.99516 10.9345C6.98882 10.9325 6.97997 10.9308 6.96536 10.9333L3.54955 11.5057C1.60337 11.8318 -0.110097 10.2387 0.155601 8.35018C0.187065 8.12654 0.246258 7.90736 0.33191 7.69735L2.036 3.51903C2.45328 2.49588 3.31939 1.704 4.40072 1.35698C5.94557 0.861214 7.58474 0.700373 9.2014 0.885924L11.3185 1.12891C12.5827 1.27401 13.5761 2.24117 13.7152 3.46218L14.0683 6.56287C14.2008 7.72552 13.9489 8.8988 13.3489 9.91509L10.0029 15.5818Z" fill="black"/>
</svg>
