<svg width="15" height="18" viewBox="0 0 15 18" fill="none" xmlns="http://www.w3.org/2000/svg">
<path d="M7.33697 0.75C6.87896 0.750008 6.44993 0.974059 6.1882 1.34991L1.95631 7.427C1.16164 8.56818 0.807448 9.95868 0.959344 11.341L1.28477 14.3024C1.42383 15.5679 2.4173 16.5703 3.68151 16.7207L5.79855 16.9725C7.41521 17.1648 9.05439 16.9981 10.5992 16.4843C11.6806 16.1246 12.5467 15.3039 12.964 14.2435L14.6726 9.90139C14.7552 9.69136 14.8123 9.47217 14.8427 9.24852C15.107 7.30135 13.3476 5.68822 11.4306 6.12017L7.5327 6.99848L8.69256 2.49935C8.92096 1.61335 8.25194 0.749985 7.33697 0.75Z" fill="black"/>
</svg>
