<svg width="20" height="16" viewBox="0 0 20 16" fill="none" xmlns="http://www.w3.org/2000/svg">
<path d="M5.289 0.907613C8.42364 0.635125 11.576 0.635125 14.7106 0.907613L16.2209 1.03889C17.2263 1.12629 18.0873 1.72596 18.5335 2.58374C18.5905 2.69347 18.5478 2.82633 18.4426 2.89144L12.1766 6.77037C10.8328 7.60228 9.13825 7.61974 7.77753 6.81568L1.46971 3.08833C1.3678 3.02811 1.32102 2.90415 1.36695 2.79505C1.7751 1.82548 2.69273 1.1333 3.77877 1.0389L5.289 0.907613Z" fill="black"/>
<path d="M1.36181 4.76688C1.20585 4.67472 1.00685 4.7739 0.988668 4.95414C0.734932 7.46977 0.796343 10.0092 1.1729 12.5133C1.37141 13.8334 2.44882 14.8455 3.77877 14.9611L5.289 15.0924C8.42364 15.3649 11.576 15.3649 14.7107 15.0924L16.2209 14.9611C17.5508 14.8455 18.6282 13.8334 18.8268 12.5133C19.2143 9.93625 19.268 7.32174 18.988 4.73428C18.9684 4.55276 18.766 4.45541 18.6107 4.55151L12.9662 8.04576C11.148 9.1713 8.85541 9.19492 7.01444 8.10707L1.36181 4.76688Z" fill="black"/>
</svg>
