<svg width="14" height="20" viewBox="0 0 14 20" fill="none" xmlns="http://www.w3.org/2000/svg">
<path d="M11.131 1.18555C8.40106 0.727883 5.59925 0.727883 2.8693 1.18555C1.87196 1.35275 1.0777 2.11842 0.877723 3.11119C-0.038397 7.65929 -0.088383 12.3394 0.730387 16.906L1.06374 18.7652C1.16652 19.3385 1.86543 19.5676 2.28769 19.1665L6.31141 15.344C6.69737 14.9773 7.30294 14.9773 7.68891 15.344L11.7126 19.1665C12.1349 19.5676 12.8338 19.3385 12.9366 18.7652L13.2699 16.906C14.0887 12.3394 14.0387 7.65928 13.1226 3.11119C12.9226 2.11842 12.1284 1.35275 11.131 1.18555Z" fill="black"/>
</svg>
