<svg width="16" height="21" viewBox="0 0 16 21" fill="none" xmlns="http://www.w3.org/2000/svg">
<path d="M10.1661 1.18862C8.73694 0.895785 7.26325 0.895785 5.8341 1.18862C5.39028 1.27956 5.04853 1.63482 4.97486 2.08184L4.92064 2.41083C4.47437 5.11868 4.47437 7.88132 4.92064 10.5892L4.97486 10.9182C5.04853 11.3652 5.39028 11.7204 5.8341 11.8114C7.26325 12.1042 8.73694 12.1042 10.1661 11.8114C10.6099 11.7204 10.9517 11.3652 11.0253 10.9182L11.0795 10.5892C11.5258 7.88132 11.5258 5.11868 11.0795 2.41083L11.0253 2.08183C10.9517 1.63482 10.6099 1.27956 10.1661 1.18862Z" fill="#989898"/>
<path d="M0.89487 8.25742C1.30499 8.19931 1.68456 8.48466 1.74268 8.89478L2.19318 12.0741C2.3149 12.9331 2.99582 13.6047 3.8564 13.7146C6.60769 14.0661 9.3925 14.0661 12.1438 13.7146C13.0044 13.6047 13.6853 12.9331 13.807 12.0741L14.2575 8.89478C14.3156 8.48466 14.6952 8.19931 15.1053 8.25742C15.5154 8.31553 15.8008 8.69511 15.7427 9.10523L15.2922 12.2845C15.0757 13.8124 13.8645 15.007 12.3338 15.2025C11.1436 15.3546 9.94738 15.4437 8.75012 15.47V19.5C8.75012 19.9142 8.41434 20.25 8.00012 20.25C7.58591 20.25 7.25012 19.9142 7.25012 19.5V15.47C6.05284 15.4437 4.8566 15.3546 3.66635 15.2025C2.13565 15.007 0.92452 13.8124 0.70802 12.2845L0.257513 9.10523C0.199399 8.69511 0.484754 8.31553 0.89487 8.25742Z" fill="#989898"/>
</svg>
